<svg width="46" height="45" viewBox="0 0 46 45" fill="none" xmlns="http://www.w3.org/2000/svg">
<path d="M18.5 2.5H2.5V43H43.5V35.75V28.5" stroke="white" stroke-width="4" stroke-linecap="round"/>
<path d="M31.6269 22L31.209 18.64C30.9826 18.5525 30.7695 18.4475 30.5696 18.325C30.3697 18.2025 30.1736 18.0712 29.9813 17.9312L26.8731 19.2437L24 14.2562L26.6903 12.2087C26.6729 12.0862 26.6642 11.9683 26.6642 11.8549V11.1461C26.6642 11.0321 26.6729 10.9137 26.6903 10.7912L24 8.74375L26.8731 3.75625L29.9813 5.06875C30.1729 4.92875 30.3731 4.7975 30.5821 4.675C30.791 4.5525 31 4.4475 31.209 4.36L31.6269 1H37.3731L37.791 4.36C38.0174 4.4475 38.2309 4.5525 38.4315 4.675C38.6321 4.7975 38.8278 4.92875 39.0187 5.06875L42.1269 3.75625L45 8.74375L42.3097 10.7912C42.3271 10.9137 42.3358 11.0321 42.3358 11.1461V11.8538C42.3358 11.9679 42.3184 12.0862 42.2836 12.2087L44.9739 14.2562L42.1007 19.2437L39.0187 17.9312C38.8271 18.0712 38.6269 18.2025 38.4179 18.325C38.209 18.4475 38 18.5525 37.791 18.64L37.3731 22H31.6269ZM34.5522 15.175C35.5622 15.175 36.4241 14.8162 37.1381 14.0988C37.852 13.3812 38.209 12.515 38.209 11.5C38.209 10.485 37.852 9.61875 37.1381 8.90125C36.4241 8.18375 35.5622 7.825 34.5522 7.825C33.5249 7.825 32.6584 8.18375 31.9528 8.90125C31.2473 9.61875 30.8948 10.485 30.8955 11.5C30.8962 12.515 31.249 13.3812 31.9539 14.0988C32.6588 14.8162 33.5249 15.175 34.5522 15.175Z" fill="white"/>
</svg>
