<svg width="80" height="56" viewBox="0 0 80 56" fill="none" xmlns="http://www.w3.org/2000/svg">
<path d="M79.5989 20.4896L74.9119 8.77207C74.5666 7.90044 73.9667 7.1531 73.1903 6.62755C72.4139 6.10201 71.4972 5.82266 70.5597 5.82596H58.3166V2.48479C58.3166 1.95205 58.1049 1.44112 57.7282 1.06441C57.3515 0.687706 56.8406 0.476074 56.3078 0.476074H5.42034C4.17727 0.476074 2.98511 0.969883 2.10613 1.84887C1.22715 2.72785 0.733337 3.92001 0.733337 5.16308V42.6591C0.733337 43.9022 1.22715 45.0944 2.10613 45.9733C2.98511 46.8523 4.17727 47.3461 5.42034 47.3461H11.6474C12.1084 49.6166 13.3402 51.6578 15.134 53.124C16.9278 54.5901 19.1733 55.3911 21.4901 55.3911C23.8068 55.3911 26.0524 54.5901 27.8462 53.124C29.64 51.6578 30.8718 49.6166 31.3328 47.3461H49.1434C49.6044 49.6166 50.8362 51.6578 52.63 53.124C54.4238 54.5901 56.6694 55.3911 58.9861 55.3911C61.3029 55.3911 63.5484 54.5901 65.3422 53.124C67.136 51.6578 68.3678 49.6166 68.8288 47.3461H75.0559C76.2989 47.3461 77.4911 46.8523 78.3701 45.9733C79.2491 45.0944 79.7429 43.9022 79.7429 42.6591V21.2328C79.7424 20.9782 79.6936 20.726 79.5989 20.4896ZM58.3166 9.85009H70.563C70.6971 9.84996 70.8282 9.8901 70.9392 9.96531C71.0502 10.0405 71.1361 10.1473 71.1857 10.2719L74.7679 19.2241H58.3166V9.85009ZM4.75077 5.16308C4.75077 4.9855 4.82131 4.81519 4.94688 4.68962C5.07245 4.56405 5.24276 4.49351 5.42034 4.49351H54.2991V27.259H4.75077V5.16308ZM21.4901 51.3636C20.2982 51.3636 19.1331 51.0101 18.1421 50.348C17.1511 49.6858 16.3787 48.7447 15.9226 47.6435C15.4665 46.5424 15.3472 45.3307 15.5797 44.1618C15.8122 42.9928 16.3862 41.9191 17.2289 41.0763C18.0717 40.2335 19.1455 39.6596 20.3144 39.4271C21.4834 39.1945 22.695 39.3139 23.7962 39.77C24.8973 40.2261 25.8385 40.9985 26.5006 41.9895C27.1628 42.9805 27.5162 44.1456 27.5162 45.3374C27.5162 46.9356 26.8813 48.4684 25.7512 49.5985C24.6211 50.7287 23.0883 51.3636 21.4901 51.3636ZM49.1434 43.3287H31.3328C30.8718 41.0583 29.64 39.017 27.8462 37.5509C26.0524 36.0847 23.8068 35.2838 21.4901 35.2838C19.1733 35.2838 16.9278 36.0847 15.134 37.5509C13.3402 39.017 12.1084 41.0583 11.6474 43.3287H5.42034C5.24276 43.3287 5.07245 43.2582 4.94688 43.1326C4.82131 43.007 4.75077 42.8367 4.75077 42.6591V31.2764H54.2991V36.4589C52.9867 37.1534 51.844 38.1294 50.9527 39.317C50.0614 40.5046 49.4436 41.8745 49.1434 43.3287ZM58.9861 51.3636C57.7943 51.3636 56.6292 51.0101 55.6382 50.348C54.6472 49.6858 53.8748 48.7447 53.4187 47.6435C52.9626 46.5424 52.8432 45.3307 53.0758 44.1618C53.3083 42.9928 53.8822 41.9191 54.725 41.0763C55.5678 40.2335 56.6415 39.6596 57.8105 39.4271C58.9794 39.1945 60.1911 39.3139 61.2922 39.77C62.3934 40.2261 63.3345 40.9985 63.9967 41.9895C64.6588 42.9805 65.0123 44.1456 65.0123 45.3374C65.0123 46.9356 64.3774 48.4684 63.2473 49.5985C62.1171 50.7287 60.5844 51.3636 58.9861 51.3636ZM75.7254 42.6591C75.7254 42.8367 75.6549 43.007 75.5293 43.1326C75.4037 43.2582 75.2334 43.3287 75.0559 43.3287H68.8288C68.3628 41.0616 67.1294 39.0245 65.3364 37.5608C63.5435 36.0972 61.3006 35.2965 58.9861 35.2938C58.7618 35.2938 58.5375 35.2938 58.3166 35.3173V23.2415H75.7254V42.6591Z" fill="white"/>
</svg>
