<svg id="visual" viewBox="0 0 960 540" width="960" height="540" xmlns="http://www.w3.org/2000/svg" xmlns:xlink="http://www.w3.org/1999/xlink" version="1.1"><rect x="0" y="0" width="960" height="540" fill="#001220"></rect><path d="M0 346L22.8 351C45.7 356 91.3 366 137 366.8C182.7 367.7 228.3 359.3 274 361.5C319.7 363.7 365.3 376.3 411.2 380.3C457 384.3 503 379.7 548.8 375.8C594.7 372 640.3 369 686 360.8C731.7 352.7 777.3 339.3 823 339.8C868.7 340.3 914.3 354.7 937.2 361.8L960 369L960 541L937.2 541C914.3 541 868.7 541 823 541C777.3 541 731.7 541 686 541C640.3 541 594.7 541 548.8 541C503 541 457 541 411.2 541C365.3 541 319.7 541 274 541C228.3 541 182.7 541 137 541C91.3 541 45.7 541 22.8 541L0 541Z" fill="#fa7268"></path><path d="M0 365L22.8 369.5C45.7 374 91.3 383 137 388C182.7 393 228.3 394 274 397.3C319.7 400.7 365.3 406.3 411.2 409.7C457 413 503 414 548.8 405C594.7 396 640.3 377 686 376C731.7 375 777.3 392 823 397.3C868.7 402.7 914.3 396.3 937.2 393.2L960 390L960 541L937.2 541C914.3 541 868.7 541 823 541C777.3 541 731.7 541 686 541C640.3 541 594.7 541 548.8 541C503 541 457 541 411.2 541C365.3 541 319.7 541 274 541C228.3 541 182.7 541 137 541C91.3 541 45.7 541 22.8 541L0 541Z" fill="#ef5f67"></path><path d="M0 430L22.8 432.7C45.7 435.3 91.3 440.7 137 438.7C182.7 436.7 228.3 427.3 274 427C319.7 426.7 365.3 435.3 411.2 437.8C457 440.3 503 436.7 548.8 433.2C594.7 429.7 640.3 426.3 686 425.7C731.7 425 777.3 427 823 432.3C868.7 437.7 914.3 446.3 937.2 450.7L960 455L960 541L937.2 541C914.3 541 868.7 541 823 541C777.3 541 731.7 541 686 541C640.3 541 594.7 541 548.8 541C503 541 457 541 411.2 541C365.3 541 319.7 541 274 541C228.3 541 182.7 541 137 541C91.3 541 45.7 541 22.8 541L0 541Z" fill="#e34c67"></path><path d="M0 468L22.8 470.3C45.7 472.7 91.3 477.3 137 474.5C182.7 471.7 228.3 461.3 274 459.5C319.7 457.7 365.3 464.3 411.2 462.2C457 460 503 449 548.8 444.3C594.7 439.7 640.3 441.3 686 442.2C731.7 443 777.3 443 823 446.5C868.7 450 914.3 457 937.2 460.5L960 464L960 541L937.2 541C914.3 541 868.7 541 823 541C777.3 541 731.7 541 686 541C640.3 541 594.7 541 548.8 541C503 541 457 541 411.2 541C365.3 541 319.7 541 274 541C228.3 541 182.7 541 137 541C91.3 541 45.7 541 22.8 541L0 541Z" fill="#d53867"></path><path d="M0 499L22.8 496.8C45.7 494.7 91.3 490.3 137 488C182.7 485.7 228.3 485.3 274 490.2C319.7 495 365.3 505 411.2 505.3C457 505.7 503 496.3 548.8 495.5C594.7 494.7 640.3 502.3 686 501.7C731.7 501 777.3 492 823 492.2C868.7 492.3 914.3 501.7 937.2 506.3L960 511L960 541L937.2 541C914.3 541 868.7 541 823 541C777.3 541 731.7 541 686 541C640.3 541 594.7 541 548.8 541C503 541 457 541 411.2 541C365.3 541 319.7 541 274 541C228.3 541 182.7 541 137 541C91.3 541 45.7 541 22.8 541L0 541Z" fill="#c62368"></path></svg>