<svg width="80" height="80" viewBox="0 0 80 80" fill="none" xmlns="http://www.w3.org/2000/svg">
<path d="M32.0778 5H4V76.072H75.9494V63.3492V50.6265" stroke="#F77850" stroke-width="7.6" stroke-linecap="round"/>
<path d="M58.6893 43.0491L59.4994 43.2645L60.3097 43.0493C64.7394 41.8732 68.3317 39.1818 71.0648 35.2099C73.7852 31.2563 75.155 26.8298 75.155 22.015V11.95V9.80601L73.1616 9.01663L60.6616 4.06663L59.5 3.60663L58.3384 4.06663L45.8384 9.01663L43.845 9.80601V11.95V22.0142C43.845 22.0145 43.845 22.0147 43.845 22.015C43.844 26.8292 45.214 31.2553 47.9356 35.2088C50.6694 39.1799 54.261 41.8716 58.6893 43.0491Z" stroke="#F77850" stroke-width="6.31"/>
<path d="M59.5 15.5L59.5 29.5" stroke="#F77850" stroke-width="3"/>
</svg>
